<svg width="202" height="51" viewBox="0 0 202 51" fill="none" xmlns="http://www.w3.org/2000/svg">
<path d="M26.531 10C26.531 4.47715 31.0082 -9.14173e-08 36.531 8.74228e-07L191.047 2.78906e-05C198.781 2.92429e-05 203.588 8.4039 199.666 15.0702L181.431 46.0702C179.634 49.1246 176.355 51 172.812 51L36.531 51C31.0082 51 26.531 46.5228 26.531 41L26.531 10Z" fill="#28958A"/>
<path d="M174.531 41C174.531 46.5228 170.054 51 164.531 51L10.0152 51C2.28102 51 -2.52554 42.5961 1.39583 35.9298L19.6311 4.92982C21.4278 1.87543 24.7068 1.22238e-05 28.2505 1.1914e-05L164.531 0C170.054 -4.82823e-07 174.531 4.47715 174.531 10V41Z" fill="#28958A"/>
</svg>
